# xmcd
# Copyright (C) 1995-1998 Ti Kan
#
# Track frame offsets:
#       150
#       17867
#       34202
#       51692
#       68624
#       84813
#       101765
#       115656
#       129628
#       143921
#       164032
#       196397
#
# Disc length: 2841 seconds
#
# Revision: 0
# Processed by: cddbd v1.5.1PL2 Copyright (c) Steve Scherf et al.
# Submitted via: CD-Transfer v1.0
#
DISCID=ab0b170c
DTITLE=Fuchs - 
DYEAR=2006
DGENRE=
TTITLE0=I Wotts Niemeh Ghöre
TTITLE1=Amerika
TTITLE2=Ohni Di
TTITLE3=7-Meile-Stifu
TTITLE4=Hätsch Mir Doch Eifach Gseit
TTITLE5=Für Immer
TTITLE6=Heude Vom Iisch
TTITLE7=Gimer Es Lache Vo Dim Härz
TTITLE8=Wunderbar
TTITLE9=Stang Wider Uf
TTITLE10=Es Wird Ga
TTITLE11=Für Immer
EXTD=
EXTT0=
EXTT1=
EXTT2=
EXTT3=
EXTT4=
EXTT5=
EXTT6=
EXTT7=
EXTT8=
EXTT9=
EXTT10=
EXTT11=
PLAYORDER=
